<svg width="23" height="31" viewBox="0 0 23 31" fill="none" xmlns="http://www.w3.org/2000/svg">
<path d="M13.3333 2.99992C13.3333 1.53325 14.5333 0.333252 16 0.333252C17.4667 0.333252 18.6667 1.53325 18.6667 2.99992C18.6667 4.46659 17.4667 5.66658 16 5.66658C14.5333 5.66658 13.3333 4.46659 13.3333 2.99992ZM5.66667 28.9999C5.12 28.9999 4.66667 29.4532 4.66667 29.9999C4.66667 30.5466 5.12 30.9999 5.66667 30.9999C6.21333 30.9999 6.66667 30.5466 6.66667 29.9999C6.66667 29.4532 6.21333 28.9999 5.66667 28.9999ZM17 28.9999C16.4533 28.9999 16 29.4532 16 29.9999C16 30.5466 16.4533 30.9999 17 30.9999C17.5467 30.9999 18 30.5466 18 29.9999C18 29.4532 17.5467 28.9999 17 28.9999ZM21.6533 24.3333C21.3333 24.3333 21.0533 24.4799 20.8667 24.7332C20.1333 25.7066 18.9733 26.3333 17.6667 26.3333H17.3333V18.3333L11.5733 14.7733L13.9733 10.9199C15.5067 13.3733 18.24 14.9999 21.3333 14.9999V12.3333C18.8667 12.3333 16.7467 10.8399 15.8267 8.70658L15.1333 7.09325C14.88 6.51992 14.1467 5.66658 12.9333 5.66658H5.33333L2 10.9999L4.26667 12.4133L6.8 8.33325H9.93333L6.73333 13.4533C6.32 14.1199 6.21333 14.9333 6.45333 15.6799L8.24 21.2133L4.08 26.2266C3.14667 26.0133 2.34667 25.4666 1.8 24.7332C1.61333 24.4799 1.32 24.3333 1 24.3333C0.413333 24.3333 0 24.8132 0 25.3333C0 25.5333 0.0666668 25.7466 0.2 25.9333C1.29333 27.3999 3.04 28.3333 5 28.3333H17.6667C19.6267 28.3333 21.3733 27.3999 22.4667 25.9333C22.6 25.7466 22.6667 25.5333 22.6667 25.3333C22.6667 24.8132 22.24 24.3333 21.6533 24.3333ZM14.6667 26.3333H7.46667L11.3333 21.6666L10 17.2666L14.6667 20.1999V26.3333Z" fill="#2A7AE4"/>
</svg>
