<svg width="134" height="24" viewBox="0 0 134 24" fill="none" xmlns="http://www.w3.org/2000/svg">
<path d="M19 9L20.25 6.25L23 5L20.25 3.75L19 1L17.75 3.75L15 5L17.75 6.25L19 9Z" fill="#464646"/>
<path d="M19 15L17.75 17.75L15 19L17.75 20.25L19 23L20.25 20.25L23 19L20.25 17.75L19 15Z" fill="#464646"/>
<path d="M11.5 9.5L9 4L6.5 9.5L1 12L6.5 14.5L9 20L11.5 14.5L17 12L11.5 9.5ZM9.99 12.99L9 15.17L8.01 12.99L5.83 12L8.01 11.01L9 8.83L9.99 11.01L12.17 12L9.99 12.99Z" fill="#464646"/>
<path d="M33.184 17.5V6.14H40.816V8.076H35.392V11.004H39.904V12.796H35.392V17.5H33.184ZM41.7554 14.364V9.116H43.8994V13.9C43.8994 14.54 44.0167 15.0253 44.2514 15.356C44.486 15.676 44.8327 15.836 45.2914 15.836C45.5687 15.836 45.8407 15.7827 46.1074 15.676C46.3847 15.5587 46.6354 15.388 46.8594 15.164C47.094 14.94 47.2914 14.6573 47.4514 14.316V9.116H49.5954V15.1C49.5954 15.324 49.6327 15.484 49.7074 15.58C49.7927 15.676 49.926 15.7347 50.1074 15.756V17.5C49.894 17.532 49.7127 17.5533 49.5634 17.564C49.4247 17.5853 49.2967 17.596 49.1794 17.596C48.7954 17.596 48.4807 17.5107 48.2354 17.34C48.0007 17.1587 47.862 16.9133 47.8194 16.604L47.7714 15.932C47.398 16.4973 46.918 16.9293 46.3314 17.228C45.7447 17.516 45.0994 17.66 44.3954 17.66C43.5314 17.66 42.8754 17.3827 42.4274 16.828C41.9794 16.2627 41.7554 15.4413 41.7554 14.364ZM51.71 5.82H53.854V14.812C53.854 15.196 53.918 15.4573 54.046 15.596C54.174 15.724 54.35 15.788 54.574 15.788C54.7447 15.788 54.9207 15.7667 55.102 15.724C55.2833 15.6813 55.4433 15.628 55.582 15.564L55.87 17.196C55.582 17.3347 55.246 17.4413 54.862 17.516C54.478 17.5907 54.1313 17.628 53.822 17.628C53.15 17.628 52.6273 17.452 52.254 17.1C51.8913 16.7373 51.71 16.2253 51.71 15.564V5.82ZM56.2281 15.02C56.2281 14.476 56.3775 14.0013 56.6761 13.596C56.9855 13.18 57.4121 12.86 57.9561 12.636C58.5001 12.412 59.1241 12.3 59.8281 12.3C60.1801 12.3 60.5375 12.3267 60.9001 12.38C61.2628 12.4333 61.5775 12.5187 61.8441 12.636V12.188C61.8441 11.6547 61.6841 11.244 61.3641 10.956C61.0548 10.668 60.5908 10.524 59.9721 10.524C59.5135 10.524 59.0761 10.604 58.6601 10.764C58.2441 10.924 57.8068 11.1587 57.3481 11.468L56.6601 10.06C57.2148 9.69733 57.7801 9.42533 58.3561 9.244C58.9428 9.06267 59.5561 8.972 60.1961 8.972C61.3908 8.972 62.3188 9.27067 62.9801 9.868C63.6521 10.4653 63.9881 11.3187 63.9881 12.428V15.1C63.9881 15.324 64.0255 15.484 64.1001 15.58C64.1855 15.676 64.3188 15.7347 64.5001 15.756V17.5C64.3081 17.532 64.1321 17.5587 63.9721 17.58C63.8228 17.6013 63.6948 17.612 63.5881 17.612C63.1615 17.612 62.8361 17.516 62.6121 17.324C62.3988 17.132 62.2655 16.8973 62.2121 16.62L62.1641 16.188C61.8015 16.6573 61.3481 17.02 60.8041 17.276C60.2601 17.532 59.7055 17.66 59.1401 17.66C58.5855 17.66 58.0841 17.548 57.6361 17.324C57.1988 17.0893 56.8521 16.7747 56.5961 16.38C56.3508 15.9747 56.2281 15.5213 56.2281 15.02ZM61.4441 15.452C61.5615 15.324 61.6575 15.196 61.7321 15.068C61.8068 14.94 61.8441 14.8227 61.8441 14.716V13.868C61.5881 13.7613 61.3108 13.6813 61.0121 13.628C60.7135 13.564 60.4308 13.532 60.1641 13.532C59.6095 13.532 59.1508 13.6547 58.7881 13.9C58.4361 14.1347 58.2601 14.4493 58.2601 14.844C58.2601 15.0573 58.3188 15.26 58.4361 15.452C58.5535 15.644 58.7241 15.7987 58.9481 15.916C59.1721 16.0333 59.4388 16.092 59.7481 16.092C60.0681 16.092 60.3828 16.0333 60.6921 15.916C61.0015 15.788 61.2521 15.6333 61.4441 15.452ZM73.7836 17.5H71.6396V12.796C71.6396 12.124 71.5223 11.6333 71.2876 11.324C71.053 11.0147 70.7276 10.86 70.3116 10.86C70.0236 10.86 69.7303 10.9347 69.4316 11.084C69.1436 11.2333 68.8823 11.4413 68.6476 11.708C68.413 11.964 68.2423 12.2627 68.1356 12.604V17.5H65.9916V9.116H67.9276V10.668C68.141 10.3053 68.413 10.0013 68.7436 9.756C69.0743 9.5 69.453 9.308 69.8796 9.18C70.317 9.04133 70.7756 8.972 71.2556 8.972C71.7783 8.972 72.205 9.068 72.5356 9.26C72.877 9.44133 73.133 9.692 73.3036 10.012C73.485 10.3213 73.6076 10.6733 73.6716 11.068C73.7463 11.4627 73.7836 11.8627 73.7836 12.268V17.5ZM75.0719 15.02C75.0719 14.476 75.2212 14.0013 75.5199 13.596C75.8292 13.18 76.2559 12.86 76.7999 12.636C77.3439 12.412 77.9679 12.3 78.6719 12.3C79.0239 12.3 79.3812 12.3267 79.7439 12.38C80.1065 12.4333 80.4212 12.5187 80.6879 12.636V12.188C80.6879 11.6547 80.5279 11.244 80.2079 10.956C79.8985 10.668 79.4345 10.524 78.8159 10.524C78.3572 10.524 77.9199 10.604 77.5039 10.764C77.0879 10.924 76.6505 11.1587 76.1919 11.468L75.5039 10.06C76.0585 9.69733 76.6239 9.42533 77.1999 9.244C77.7865 9.06267 78.3999 8.972 79.0399 8.972C80.2345 8.972 81.1625 9.27067 81.8239 9.868C82.4959 10.4653 82.8319 11.3187 82.8319 12.428V15.1C82.8319 15.324 82.8692 15.484 82.9439 15.58C83.0292 15.676 83.1625 15.7347 83.3439 15.756V17.5C83.1519 17.532 82.9759 17.5587 82.8159 17.58C82.6665 17.6013 82.5385 17.612 82.4319 17.612C82.0052 17.612 81.6799 17.516 81.4559 17.324C81.2425 17.132 81.1092 16.8973 81.0559 16.62L81.0079 16.188C80.6452 16.6573 80.1919 17.02 79.6479 17.276C79.1039 17.532 78.5492 17.66 77.9839 17.66C77.4292 17.66 76.9279 17.548 76.4799 17.324C76.0425 17.0893 75.6959 16.7747 75.4399 16.38C75.1945 15.9747 75.0719 15.5213 75.0719 15.02ZM80.2879 15.452C80.4052 15.324 80.5012 15.196 80.5759 15.068C80.6505 14.94 80.6879 14.8227 80.6879 14.716V13.868C80.4319 13.7613 80.1545 13.6813 79.8559 13.628C79.5572 13.564 79.2745 13.532 79.0079 13.532C78.4532 13.532 77.9945 13.6547 77.6319 13.9C77.2799 14.1347 77.1039 14.4493 77.1039 14.844C77.1039 15.0573 77.1625 15.26 77.2799 15.452C77.3972 15.644 77.5679 15.7987 77.7919 15.916C78.0159 16.0333 78.2825 16.092 78.5919 16.092C78.9119 16.092 79.2265 16.0333 79.5359 15.916C79.8452 15.788 80.0959 15.6333 80.2879 15.452ZM88.1671 13.308C88.1671 12.4973 88.3271 11.7667 88.6471 11.116C88.9671 10.4547 89.4098 9.932 89.9751 9.548C90.5405 9.164 91.1858 8.972 91.9111 8.972C92.5298 8.972 93.0845 9.12667 93.5751 9.436C94.0765 9.73467 94.4658 10.1187 94.7431 10.588V5.82H96.8871V15.1C96.8871 15.324 96.9245 15.484 96.9991 15.58C97.0738 15.676 97.2018 15.7347 97.3831 15.756V17.5C97.0098 17.5747 96.7058 17.612 96.4711 17.612C96.0871 17.612 95.7671 17.516 95.5111 17.324C95.2658 17.132 95.1271 16.8813 95.0951 16.572L95.0631 16.044C94.7538 16.5667 94.3325 16.9667 93.7991 17.244C93.2765 17.5213 92.7271 17.66 92.1511 17.66C91.5751 17.66 91.0418 17.548 90.5511 17.324C90.0711 17.1 89.6498 16.7907 89.2871 16.396C88.9351 16.0013 88.6578 15.5427 88.4551 15.02C88.2631 14.4867 88.1671 13.916 88.1671 13.308ZM94.7431 14.428V12.428C94.6365 12.1187 94.4658 11.8413 94.2311 11.596C93.9965 11.3507 93.7351 11.1587 93.4471 11.02C93.1591 10.8707 92.8711 10.796 92.5831 10.796C92.2525 10.796 91.9538 10.8653 91.6871 11.004C91.4205 11.1427 91.1858 11.3293 90.9831 11.564C90.7911 11.7987 90.6418 12.0707 90.5351 12.38C90.4391 12.6893 90.3911 13.0147 90.3911 13.356C90.3911 13.6973 90.4445 14.0227 90.5511 14.332C90.6685 14.6307 90.8338 14.892 91.0471 15.116C91.2605 15.34 91.5058 15.516 91.7831 15.644C92.0711 15.772 92.3805 15.836 92.7111 15.836C92.9138 15.836 93.1165 15.804 93.3191 15.74C93.5325 15.6653 93.7298 15.5693 93.9111 15.452C94.1031 15.324 94.2685 15.1747 94.4071 15.004C94.5565 14.8227 94.6685 14.6307 94.7431 14.428ZM102.88 17.66C102.208 17.66 101.6 17.548 101.056 17.324C100.512 17.0893 100.048 16.7747 99.6636 16.38C99.2796 15.9747 98.981 15.516 98.7676 15.004C98.565 14.4813 98.4636 13.932 98.4636 13.356C98.4636 12.556 98.6396 11.8253 98.9916 11.164C99.3543 10.5027 99.8663 9.97467 100.528 9.58C101.2 9.17467 101.989 8.972 102.896 8.972C103.813 8.972 104.597 9.17467 105.248 9.58C105.898 9.97467 106.394 10.5027 106.736 11.164C107.088 11.8147 107.264 12.5187 107.264 13.276C107.264 13.404 107.258 13.5373 107.248 13.676C107.237 13.804 107.226 13.9107 107.216 13.996H100.736C100.778 14.4227 100.901 14.796 101.104 15.116C101.317 15.436 101.584 15.6813 101.904 15.852C102.234 16.012 102.586 16.092 102.96 16.092C103.386 16.092 103.786 15.9907 104.16 15.788C104.544 15.5747 104.805 15.2973 104.944 14.956L106.784 15.468C106.581 15.8947 106.288 16.2733 105.904 16.604C105.53 16.9347 105.088 17.196 104.576 17.388C104.064 17.5693 103.498 17.66 102.88 17.66ZM100.688 12.636H105.072C105.029 12.2093 104.906 11.8413 104.704 11.532C104.512 11.212 104.256 10.9667 103.936 10.796C103.616 10.6147 103.258 10.524 102.864 10.524C102.48 10.524 102.128 10.6147 101.808 10.796C101.498 10.9667 101.242 11.212 101.04 11.532C100.848 11.8413 100.73 12.2093 100.688 12.636ZM120.649 8.076H117.017V17.5H114.825V8.076H111.193V6.14H120.649V8.076ZM119.9 15.02C119.9 14.476 120.049 14.0013 120.348 13.596C120.657 13.18 121.084 12.86 121.628 12.636C122.172 12.412 122.796 12.3 123.5 12.3C123.852 12.3 124.209 12.3267 124.572 12.38C124.935 12.4333 125.249 12.5187 125.516 12.636V12.188C125.516 11.6547 125.356 11.244 125.036 10.956C124.727 10.668 124.263 10.524 123.644 10.524C123.185 10.524 122.748 10.604 122.332 10.764C121.916 10.924 121.479 11.1587 121.02 11.468L120.332 10.06C120.887 9.69733 121.452 9.42533 122.028 9.244C122.615 9.06267 123.228 8.972 123.868 8.972C125.063 8.972 125.991 9.27067 126.652 9.868C127.324 10.4653 127.66 11.3187 127.66 12.428V15.1C127.66 15.324 127.697 15.484 127.772 15.58C127.857 15.676 127.991 15.7347 128.172 15.756V17.5C127.98 17.532 127.804 17.5587 127.644 17.58C127.495 17.6013 127.367 17.612 127.26 17.612C126.833 17.612 126.508 17.516 126.284 17.324C126.071 17.132 125.937 16.8973 125.884 16.62L125.836 16.188C125.473 16.6573 125.02 17.02 124.476 17.276C123.932 17.532 123.377 17.66 122.812 17.66C122.257 17.66 121.756 17.548 121.308 17.324C120.871 17.0893 120.524 16.7747 120.268 16.38C120.023 15.9747 119.9 15.5213 119.9 15.02ZM125.116 15.452C125.233 15.324 125.329 15.196 125.404 15.068C125.479 14.94 125.516 14.8227 125.516 14.716V13.868C125.26 13.7613 124.983 13.6813 124.684 13.628C124.385 13.564 124.103 13.532 123.836 13.532C123.281 13.532 122.823 13.6547 122.46 13.9C122.108 14.1347 121.932 14.4493 121.932 14.844C121.932 15.0573 121.991 15.26 122.108 15.452C122.225 15.644 122.396 15.7987 122.62 15.916C122.844 16.0333 123.111 16.092 123.42 16.092C123.74 16.092 124.055 16.0333 124.364 15.916C124.673 15.788 124.924 15.6333 125.116 15.452ZM129.648 5.82H131.792V14.812C131.792 15.196 131.856 15.4573 131.984 15.596C132.112 15.724 132.288 15.788 132.512 15.788C132.682 15.788 132.858 15.7667 133.04 15.724C133.221 15.6813 133.381 15.628 133.52 15.564L133.808 17.196C133.52 17.3347 133.184 17.4413 132.799 17.516C132.416 17.5907 132.069 17.628 131.76 17.628C131.088 17.628 130.565 17.452 130.192 17.1C129.829 16.7373 129.648 16.2253 129.648 15.564V5.82Z" fill="#464646"/>
</svg>
