<svg width="28" height="25" viewBox="0 0 28 25" fill="none" xmlns="http://www.w3.org/2000/svg">
<path d="M10 0.666748L7.56002 3.33341H3.33335C1.86669 3.33341 0.666687 4.53341 0.666687 6.00008V22.0001C0.666687 23.4667 1.86669 24.6667 3.33335 24.6667H24.6667C26.1334 24.6667 27.3334 23.4667 27.3334 22.0001V6.00008C27.3334 4.53341 26.1334 3.33341 24.6667 3.33341H20.44L18 0.666748H10ZM14 20.6667C10.32 20.6667 7.33335 17.6801 7.33335 14.0001C7.33335 10.3201 10.32 7.33342 14 7.33342C17.68 7.33342 20.6667 10.3201 20.6667 14.0001C20.6667 17.6801 17.68 20.6667 14 20.6667Z" fill="#2A7AE4"/>
</svg>
